2.8Hzlow_3min_grf.mot
version=1
nRows=12
nColumns 19
inDegrees=yes
endheader
time	1_ground_force_vx	1_ground_force_vy	1_ground_force_vz	1_ground_force_px	1_ground_force_py	1_ground_force_pz	1_ground_torque_x	1_ground_torque_y	1_ground_torque_z	2_ground_force_vx	2_ground_force_vy	2_ground_force_vz	2_ground_force_px	2_ground_force_py	2_ground_force_pz	2_ground_torque_x	2_ground_torque_y	2_ground_torque_z
            0.005000	          -21.525713	          183.030787	          -14.386359	           -0.183938	            0.006334	           -0.429175	            0.029865	           -0.253937	            0.019960	          -13.474987	          109.232102	          -21.848725	           -0.165673	            0.005941	           -0.713400	           -0.362362	            2.937412	           -0.587544
            0.005500	          -19.922327	          187.898663	          -14.461183	           -0.184784	            0.006334	           -0.429262	            0.033861	           -0.319364	            0.024579	          -15.722549	          108.677722	          -23.586080	           -0.162826	            0.005954	           -0.713987	           -0.397887	            2.750281	           -0.596887
            0.006000	          -19.007360	          190.785451	          -15.001362	           -0.186005	            0.006331	           -0.428433	            0.031671	           -0.317896	            0.024996	          -17.272454	          109.597241	          -24.802268	           -0.154374	            0.005977	           -0.711964	           -0.383820	            2.435415	           -0.551144
            0.006500	          -18.459595	          194.934420	          -15.626932	           -0.185621	            0.006331	           -0.428389	            0.025358	           -0.267777	            0.021466	          -19.157371	          112.539191	          -25.447951	           -0.153690	            0.005980	           -0.711999	           -0.404546	            2.376489	           -0.537384
            0.007000	          -17.684189	          198.365320	          -16.944001	           -0.184632	            0.006334	           -0.429147	            0.033463	           -0.375358	            0.032062	          -21.784206	          113.449782	          -25.255838	           -0.157645	            0.005978	           -0.715607	           -0.496070	            2.583481	           -0.575127
            0.007500	          -16.264580	          202.332815	          -17.251514	           -0.185429	            0.006332	           -0.428653	            0.038735	           -0.481870	            0.041086	          -24.362117	          113.807436	          -24.878003	           -0.157676	            0.005982	           -0.716759	           -0.622426	            2.907659	           -0.635606
            0.008000	          -14.569354	          205.758781	          -17.378606	           -0.186350	            0.006328	           -0.427824	            0.052295	           -0.738541	            0.062378	          -25.683842	          116.564597	          -24.773733	           -0.153043	            0.005999	           -0.716870	           -0.612165	            2.778276	           -0.590473
            0.008500	          -11.957241	          210.266124	          -17.411623	           -0.187026	            0.006328	           -0.427736	            0.045139	           -0.793767	            0.065730	          -27.381175	          119.505718	          -24.997143	           -0.150495	            0.006005	           -0.715717	           -0.637207	            2.781105	           -0.581727
            0.009000	           -8.839599	          213.509935	          -17.038599	           -0.186233	            0.006335	           -0.429358	            0.024839	           -0.599965	            0.047879	          -29.586126	          120.237206	          -25.791356	           -0.150915	            0.006002	           -0.715516	           -0.657251	            2.671049	           -0.572951
            0.009500	           -6.502217	          217.476035	          -16.981540	           -0.186839	            0.006332	           -0.428668	            0.007170	           -0.239807	            0.018725	          -31.795069	          122.073584	          -26.581627	           -0.152690	            0.006001	           -0.716970	           -0.673306	            2.585084	           -0.562904
            0.010000	           -5.219776	          220.722048	          -17.200092	           -0.187642	            0.006328	           -0.427799	            0.001954	           -0.082615	            0.006438	          -34.287585	          124.644034	          -26.946797	           -0.150735	            0.006009	           -0.717131	           -0.711748	            2.587384	           -0.559367
            0.010500	           -4.673068	          225.053053	          -18.237593	           -0.187421	            0.006329	           -0.428164	            0.006438	           -0.310061	            0.025126	          -36.409514	          128.501368	          -26.322036	           -0.148763	            0.006016	           -0.717296	           -0.751917	            2.653769	           -0.543594
